<svg width="30.000000" height="30.000000" viewBox="0 0 30 30" fill="none" xmlns="http://www.w3.org/2000/svg" xmlns:xlink="http://www.w3.org/1999/xlink">
	<defs/>
	<path  d="M22.22 2.99L5.26 19.96L3.4 26.6L10.04 24.74L27 7.76C27.14 7.62 27.21 7.43 27.21 7.24C27.21 7.05 27.14 6.86 27 6.73L23.25 2.99C23.12 2.85 22.93 2.77 22.74 2.77C22.54 2.77 22.36 2.85 22.22 2.99ZM20.25 1.02C20.91 0.36 21.81 0 22.74 0C23.67 0 24.56 0.36 25.22 1.02L28.97 4.76C29.62 5.42 30 6.31 30 7.24C30 8.17 29.63 9.06 28.97 9.72L11.75 26.96C11.58 27.13 11.37 27.25 11.14 27.31L1.76 29.94C1.28 30.08 0.76 29.94 0.4 29.59C0.05 29.23 -0.09 28.71 0.05 28.23L2.68 18.86C2.75 18.64 2.87 18.43 3.04 18.26L20.25 1.02Z" fill="#FFFFFF" fill-opacity="1.000000" fill-rule="evenodd"/>
</svg>